<?xml version="1.0" encoding="iso-8859-1"?>
<!-- Generator: Adobe Illustrator 19.0.0, SVG Export Plug-In . SVG Version: 6.00 Build 0)  -->
<svg version="1.1" id="Capa_1" xmlns="http://www.w3.org/2000/svg" xmlns:xlink="http://www.w3.org/1999/xlink" x="0px" y="0px"
	 viewBox="0 0 512 512" style="enable-background:new 0 0 512 512;" xml:space="preserve">
<g>
	<g>
		<path d="M437.333,181.333C437.333,81.344,355.989,0,256,0S74.667,81.344,74.667,181.333c0,96.384,75.648,175.232,170.667,180.8
			v64.533H192c-5.888,0-10.667,4.779-10.667,10.667c0,5.888,4.779,10.667,10.667,10.667h53.333v53.333
			c0,5.888,4.779,10.667,10.667,10.667c5.888,0,10.667-4.779,10.667-10.667V448H320c5.888,0,10.667-4.779,10.667-10.667
			c0-5.888-4.779-10.667-10.667-10.667h-53.333v-64.533C361.685,356.565,437.333,277.717,437.333,181.333z M256,341.333
			c-88.235,0-160-71.765-160-160s71.765-160,160-160s160,71.765,160,160S344.235,341.333,256,341.333z"/>
	</g>
</g>
<g>
</g>
<g>
</g>
<g>
</g>
<g>
</g>
<g>
</g>
<g>
</g>
<g>
</g>
<g>
</g>
<g>
</g>
<g>
</g>
<g>
</g>
<g>
</g>
<g>
</g>
<g>
</g>
<g>
</g>
</svg>
